<svg width="397" height="427" viewBox="0 0 397 427" fill="none" xmlns="http://www.w3.org/2000/svg">
<path d="M6.64647 422.396C6.45121 422.592 6.45121 422.908 6.64647 423.104L9.82845 426.286C10.0237 426.481 10.3403 426.481 10.5356 426.286C10.7308 426.09 10.7308 425.774 10.5356 425.578L7.70713 422.75L10.5356 419.922C10.7308 419.726 10.7308 419.41 10.5356 419.214C10.3403 419.019 10.0237 419.019 9.82845 419.214L6.64647 422.396ZM-1.9429e-08 1.50002L336 1.50003L336 0.500032L1.94256e-08 0.500019L-1.9429e-08 1.50002ZM395.5 61L395.5 362.75L396.5 362.75L396.5 61L395.5 61ZM336 422.25L7.00002 422.25L7.00002 423.25L336 423.25L336 422.25ZM395.5 362.75C395.5 395.611 368.861 422.25 336 422.25L336 423.25C369.413 423.25 396.5 396.163 396.5 362.75L395.5 362.75ZM336 1.50003C368.861 1.50003 395.5 28.1391 395.5 61L396.5 61C396.5 27.5868 369.413 0.500034 336 0.500032L336 1.50003Z" fill="#552C13"/>
</svg>
