<svg width="49" height="60" viewBox="0 0 49 60" fill="none" xmlns="http://www.w3.org/2000/svg">
<g clip-path="url(#clip0_504_1665)">
<path d="M37.0409 45.9897C35.9034 47.2644 34.7978 48.5031 33.6922 49.7425C33.0807 50.4283 32.4741 51.1184 31.8541 51.7972C31.4358 52.2552 30.9452 52.1589 30.7138 51.5743C29.7299 49.0863 28.7532 46.5963 27.7729 44.1076C27.6964 43.9137 27.6108 43.7233 27.5081 43.4812C27.3574 43.615 27.2243 43.7374 27.0877 43.8542C25.8002 44.9591 24.512 46.0626 23.2252 47.1682C22.7071 47.6134 22.1996 48.0713 21.6751 48.5087C21.1329 48.9603 20.6516 48.8025 20.4825 48.1591C19.8214 45.6414 19.1511 43.1259 18.4829 40.6096C18.456 40.5084 18.4107 40.4122 18.364 40.2869C17.349 40.9338 16.3517 41.5701 15.353 42.2057C14.321 42.8626 13.2883 43.5187 12.2549 44.1749C11.7856 44.4728 11.3574 44.2555 11.2789 43.6992C11.0991 42.4202 10.9016 41.1433 10.7225 39.8643C10.4854 38.1663 10.2589 36.4676 10.0225 34.7334C9.90784 34.7624 9.80592 34.7752 9.71461 34.8127C7.45458 35.7357 5.19527 36.6601 2.93666 37.5873C2.31167 37.8442 1.92096 37.5986 1.92308 36.9099C1.92733 35.4483 1.95493 33.9867 1.96555 32.5251C1.97617 31.0274 1.98324 29.5289 1.97617 28.0312C1.97617 27.8854 1.89972 27.7113 1.80275 27.6002C1.44531 27.1925 1.0638 26.8067 0.692914 26.411C0.414039 26.1138 0.394928 25.7747 0.641244 25.5355C0.884022 25.2998 1.19829 25.3012 1.48849 25.5921C2.1786 26.2851 2.83615 27.0106 3.53334 27.6957C5.13086 29.2663 6.82322 30.7301 8.61043 32.0813C11.9456 34.6025 15.5314 36.7025 19.3294 38.4452C22.5146 39.9068 25.7953 41.1122 29.175 42.0281C31.0981 42.549 33.0453 42.9921 34.9989 43.3871C36.7018 43.7311 38.4225 44.0099 40.1467 44.2265C42.8123 44.5606 45.49 44.7814 48.1817 44.7411C48.3636 44.7383 48.5958 44.7531 48.7161 44.8593C48.8612 44.9874 48.9915 45.2259 48.9837 45.4107C48.9709 45.6973 48.719 45.8488 48.4344 45.8587C47.9864 45.8743 47.5376 45.8778 47.0903 45.8587C46.8482 45.8481 46.6961 45.9359 46.5594 46.1242C44.9456 48.3417 43.3262 50.555 41.711 52.7712C41.2247 53.4379 40.7703 53.3976 40.4051 52.6636C39.3448 50.5359 38.2774 48.4111 37.2122 46.2848C37.1704 46.202 37.1201 46.1234 37.043 45.9911L37.0409 45.9897ZM31.4719 50.3795C33.1196 48.5165 34.7186 46.7088 36.314 44.9039C33.7191 44.3122 31.181 43.7332 28.6003 43.1443C29.5544 45.548 30.4965 47.922 31.4719 50.3795ZM21.4118 47.1222C23.2139 45.5544 24.96 44.0361 26.709 42.515C24.3067 41.6232 21.9306 40.742 19.5241 39.8487C20.1484 42.256 20.7712 44.6569 21.4111 47.1222H21.4118ZM12.2832 42.7642C14.212 41.5361 16.0905 40.3407 17.9577 39.1516C15.7055 37.9051 13.5035 36.6856 11.259 35.4434C11.5974 37.8605 11.9357 40.2784 12.2832 42.7642ZM37.8435 45.1587C38.9116 47.2934 39.9761 49.4197 41.0655 51.5976C42.4719 49.6632 43.8309 47.7939 45.1877 45.9281C42.733 45.6712 40.306 45.4171 37.8428 45.1594L37.8435 45.1587ZM8.94381 33.9032C7.00017 32.288 5.08981 30.6996 3.15183 29.0894V36.2878C5.10255 35.4851 7.02778 34.6924 8.94381 33.9039V33.9032Z" fill="#548235"/>
<path d="M38.7347 16.5208C38.2102 18.1537 37.697 19.7484 37.1867 21.3438C36.9227 22.1698 36.67 22.9994 36.4025 23.8247C36.2149 24.4037 35.7732 24.5035 35.3309 24.0759C33.5854 22.3878 31.8407 20.6997 30.0945 19.0123C30.0216 18.9422 29.9423 18.8792 29.8347 18.7858C29.4249 19.752 29.0328 20.6771 28.64 21.6014C28.0341 23.0284 27.4332 24.4574 26.8188 25.8808C26.5661 26.4669 26.0643 26.5242 25.6665 26.0245C24.2657 24.2649 22.8685 22.5025 21.4685 20.7422C21.3828 20.6346 21.2873 20.5362 21.1705 20.4038C20.6899 21.181 20.2326 21.9193 19.7768 22.6589C19.0053 23.911 18.238 25.166 17.4637 26.4167C17.0659 27.0586 16.5513 27.0516 16.1635 26.4004C14.876 24.2373 13.592 22.0721 12.3059 19.9084C12.2479 19.8107 12.1792 19.7201 12.0957 19.5955C11.5847 20.1795 11.0956 20.733 10.6114 21.2907C9.47753 22.5995 8.34929 23.9131 7.21114 25.2183C6.70789 25.7952 6.16995 25.6713 5.87763 24.943C4.90227 22.5131 3.9163 20.0875 2.94023 17.6583C2.84185 17.4134 2.71515 17.2668 2.43415 17.1939C1.98186 17.0772 1.54656 16.8903 1.11126 16.714C0.84796 16.6072 0.687288 16.3778 0.72197 16.1011C0.741789 15.9425 0.872733 15.7281 1.00934 15.6714C1.18275 15.6 1.42553 15.6177 1.61381 15.6757C2.97067 16.0926 4.30347 16.6008 5.67803 16.9413C7.33854 17.3532 9.02312 17.6986 10.7155 17.9478C13.8376 18.4078 16.9845 18.4864 20.1321 18.2684C21.7976 18.153 23.4666 18.0065 25.1158 17.7574C26.8421 17.4962 28.5642 17.1614 30.2587 16.7388C32.3623 16.2136 34.4539 15.6261 36.5164 14.958C40.3343 13.7207 44.0121 12.1402 47.5363 10.2114C48.0714 9.9184 48.3524 9.94459 48.559 10.2758C48.7799 10.6297 48.6772 10.9008 48.1535 11.2385C47.8576 11.4289 47.5186 11.5548 47.2333 11.758C47.0705 11.8741 46.9084 12.0708 46.8624 12.2598C46.3486 14.3804 45.8573 16.5067 45.3612 18.6315C45.2281 19.2027 45.1113 19.7774 44.9648 20.3451C44.8339 20.854 44.3794 20.9736 43.9604 20.6402C42.2744 19.2982 40.5856 17.9619 38.8968 16.6234C38.8614 16.5951 38.8196 16.5746 38.734 16.5208H38.7347ZM35.5283 22.7403C36.2821 20.3989 37.002 18.1615 37.7296 15.9001C35.3641 16.5895 33.068 17.2583 30.8179 17.9138C32.3552 19.4886 33.9053 21.077 35.5283 22.7403ZM25.9482 24.5643C26.8839 22.4565 27.7934 20.4088 28.6966 18.3746C26.4118 18.7221 24.1652 19.064 21.8868 19.4108C23.2153 21.0968 24.5588 22.8012 25.9482 24.5643ZM16.7014 25.1483C17.8877 23.2393 19.0372 21.3905 20.1888 19.5375H13.3273C14.4485 21.4018 15.554 23.2393 16.7014 25.1483ZM39.1792 15.4053C40.8178 16.6964 42.4209 17.9591 44.0864 19.2713C44.5918 17.0418 45.0837 14.8709 45.5877 12.647C43.4253 13.5778 41.3387 14.476 39.1799 15.4046L39.1792 15.4053ZM10.7049 19.2353C8.54323 18.7752 6.40778 18.3208 4.2426 17.86C5.0495 19.8312 5.86206 21.8159 6.70222 23.8693C8.0782 22.276 9.40321 20.7415 10.7049 19.2353Z" fill="#548235"/>
<path d="M28.8829 9.52815C30.0628 9.48639 31.1415 10.4596 31.1882 11.7691C31.2314 12.9801 30.1555 14.0659 28.9162 14.0432C27.5848 14.0199 26.6625 13.0452 26.6491 11.779C26.6356 10.5431 27.6513 9.53027 28.8829 9.52815ZM28.8624 12.8591C29.4923 12.8633 29.9913 12.4054 29.9998 11.8129C30.009 11.2156 29.5065 10.6819 28.9346 10.679C28.3258 10.6762 27.8382 11.1462 27.8169 11.7563C27.7971 12.319 28.3046 12.8548 28.8624 12.8584V12.8591Z" fill="#548235"/>
<path d="M15.1257 47.8299C16.3183 47.7733 17.3779 48.8095 17.3779 49.9951C17.3779 51.2161 16.4811 52.3379 15.0832 52.3478C13.8552 52.3571 12.8069 51.2812 12.831 50.0574C12.8565 48.743 13.9974 47.7492 15.125 47.8292L15.1257 47.8299ZM15.0988 51.1644C15.7011 51.1587 16.2072 50.7015 16.2093 50.16C16.2115 49.5499 15.6877 48.9688 15.1427 48.9766C14.5226 48.9858 14.0173 49.4727 14.0215 50.0567C14.0257 50.6774 14.5042 51.1694 15.0988 51.1637V51.1644Z" fill="#548235"/>
<path d="M20.0873 31.0834C20.0675 29.8355 21.0867 28.8113 22.382 28.812C23.5938 28.8134 24.6095 29.8702 24.5989 31.0607C24.5861 32.4685 23.3857 33.4036 22.2022 33.3498C21.0513 33.2974 20.0717 32.281 20.0866 31.0834H20.0873ZM23.4197 31.1216C23.4246 30.4817 22.9829 30.0174 22.3586 30.0054C21.769 29.994 21.2524 30.4754 21.2424 31.0458C21.2325 31.6241 21.7754 32.2102 22.3233 32.1854C23.0056 32.1543 23.4812 31.5732 23.4204 31.1209L23.4197 31.1216Z" fill="#548235"/>
<path d="M9.29702 11.7927C9.35718 12.8438 8.44694 14.0174 7.06814 14.0428C5.81745 14.0655 4.75857 13.0186 4.78617 11.763C4.81448 10.4819 5.88256 9.53694 7.04761 9.51925C8.21478 9.50155 9.38266 10.6397 9.29702 11.7927ZM5.96255 11.7191C5.9767 12.405 6.4389 12.8764 7.07876 12.858C7.65774 12.841 8.16453 12.3413 8.14613 11.8048C8.1256 11.1967 7.61386 10.6673 7.06177 10.6822C6.41483 10.6999 5.95051 11.138 5.96255 11.7191Z" fill="#548235"/>
<path d="M43.4011 29.9543C43.3891 29.3732 43.8534 28.935 44.5003 28.9173C45.0524 28.9018 45.5642 29.4312 45.5847 30.0399C45.6031 30.5771 45.0963 31.0768 44.5173 31.0931C43.8775 31.1115 43.4153 30.6401 43.4011 29.9543Z" fill="#548235"/>
<path d="M17.8054 4.16618C17.7934 3.58507 18.2577 3.14694 18.9046 3.12924C19.4567 3.11367 19.9685 3.64311 19.989 4.25182C20.0074 4.78905 19.5006 5.28876 18.9216 5.30504C18.2818 5.32344 17.8196 4.85204 17.8054 4.16618Z" fill="#548235"/>
<path d="M16.7136 12.5959C16.7016 12.0148 17.1659 11.5766 17.8128 11.5589C18.3649 11.5434 18.8767 12.0728 18.8972 12.6815C18.9156 13.2187 18.4088 13.7184 17.8298 13.7347C17.19 13.7531 16.7278 13.2817 16.7136 12.5959Z" fill="#548235"/>
<path d="M37.6934 0.00129461C38.8734 -0.0404659 39.952 0.932767 39.9988 2.24221C40.0419 3.45326 38.9661 4.53904 37.7267 4.51639C36.3953 4.49303 35.4731 3.51838 35.4596 2.25212C35.4462 1.01629 36.4619 0.00341802 37.6934 0.00129461ZM37.6729 3.33223C38.3029 3.33648 38.8019 2.87853 38.8104 2.28609C38.8196 1.6887 38.317 1.15502 37.7451 1.15219C37.1364 1.14936 36.6487 1.61934 36.6275 2.22947C36.6077 2.79217 37.1152 3.32798 37.6729 3.33152V3.33223Z" fill="#548235"/>
<path d="M36.5899 33.1859C37.7698 33.1441 38.8485 34.1173 38.8953 35.4268C38.9384 36.6378 37.8626 37.7236 36.6232 37.701C35.2918 37.6776 34.3695 36.703 34.3561 35.4367C34.3426 34.2009 35.3583 33.188 36.5899 33.1859ZM36.5694 36.5168C37.1993 36.521 37.6983 36.0631 37.7068 35.4707C37.716 34.8733 37.2135 34.3396 36.6416 34.3368C36.0329 34.3339 35.5452 34.8039 35.524 35.414C35.5042 35.9767 36.0116 36.5126 36.5694 36.5161V36.5168Z" fill="#548235"/>
<path d="M3.14915 46.1955C3.13712 45.6144 3.60144 45.1762 4.24838 45.1585C4.80047 45.143 5.31221 45.6724 5.33274 46.2811C5.35114 46.8183 4.84435 47.3181 4.26536 47.3343C3.62551 47.3527 3.16331 46.8813 3.14915 46.1955Z" fill="#548235"/>
<path d="M33.2644 56.026C33.2524 55.4449 33.7167 55.0068 34.3636 54.9891C34.9157 54.9735 35.4274 55.503 35.448 56.1117C35.4664 56.6489 34.9596 57.1486 34.3806 57.1649C33.7407 57.1833 33.2785 56.7119 33.2644 56.026Z" fill="#548235"/>
<path d="M21.2507 58.86C21.2387 58.2789 21.703 57.8408 22.3499 57.8231C22.902 57.8075 23.4138 58.337 23.4343 58.9457C23.4527 59.4829 22.9459 59.9826 22.3669 59.9989C21.7271 60.0173 21.2649 59.5459 21.2507 58.86Z" fill="#548235"/>
<path d="M11.2605 28.7609C11.2484 28.1798 11.7128 27.7417 12.3597 27.724C12.9118 27.7084 13.4235 28.2378 13.4441 28.8465C13.4625 29.3838 12.9557 29.8835 12.3767 29.8998C11.7368 29.9182 11.2746 29.4468 11.2605 28.7609Z" fill="#548235"/>
</g>
<defs>
<clipPath id="clip0_504_1665">
<rect width="48.5144" height="60" fill="white" transform="translate(0.469238)"/>
</clipPath>
</defs>
</svg>
