<svg width="26" height="22" viewBox="0 0 26 22" fill="none" xmlns="http://www.w3.org/2000/svg">
<path fill-rule="evenodd" clip-rule="evenodd" d="M24.5 11C24.5 15.9706 20.4706 20 15.5 20C10.6973 20 6.77328 16.2382 6.51367 11.5003L17.2929 11.5003L14.9645 14.8288C14.7692 15.024 14.7692 15.3406 14.9645 15.5359C15.1597 15.7311 15.4763 15.7311 15.6716 15.5359L18.8536 11.3539C19.0488 11.1586 19.0488 10.8421 18.8536 10.6468L15.6716 6.46481C15.4763 6.26955 15.1597 6.26955 14.9645 6.46481C14.7692 6.66007 14.7692 6.97665 14.9645 7.17191L17.2929 10.5003L6.51364 10.5003C6.77291 5.76219 10.6971 2 15.5 2C20.4706 2 24.5 6.02944 24.5 11ZM5.51227 10.5003C5.77261 5.20962 10.1447 1 15.5 1C21.0228 1 25.5 5.47715 25.5 11C25.5 16.5228 21.0228 21 15.5 21C10.1449 21 5.77299 16.7907 5.5123 11.5003H1.5C1.22386 11.5003 1 11.2765 1 11.0003C1 10.7242 1.22386 10.5003 1.5 10.5003H5.51227Z" fill="#552C13"/>
<path d="M6.51367 11.5003V11.3503H6.35523L6.3639 11.5085L6.51367 11.5003ZM17.2929 11.5003L17.4158 11.5863L17.5809 11.3503H17.2929V11.5003ZM14.9645 14.8288L15.0705 14.9348L15.0798 14.9255L15.0874 14.9148L14.9645 14.8288ZM14.9645 15.5359L15.0705 15.4298L15.0705 15.4298L14.9645 15.5359ZM15.6716 15.5359L15.7776 15.6419L15.7848 15.6348L15.7909 15.6267L15.6716 15.5359ZM18.8536 11.3539L18.7475 11.2478L18.7403 11.255L18.7342 11.2631L18.8536 11.3539ZM18.8536 10.6468L18.7342 10.7376L18.7403 10.7457L18.7475 10.7529L18.8536 10.6468ZM15.6716 6.46481L15.7909 6.37398L15.7848 6.36591L15.7776 6.35874L15.6716 6.46481ZM14.9645 6.46481L15.0705 6.57087L14.9645 6.46481ZM14.9645 7.17191L15.0874 7.08593L15.0798 7.07515L15.0705 7.06585L14.9645 7.17191ZM17.2929 10.5003V10.6503H17.5809L17.4158 10.4144L17.2929 10.5003ZM6.51364 10.5003L6.36386 10.4921L6.3552 10.6503H6.51364V10.5003ZM5.51227 10.5003V10.6503H5.65507L5.66208 10.5077L5.51227 10.5003ZM5.5123 11.5003L5.66212 11.493L5.65509 11.3503H5.5123V11.5003ZM15.5 20.15C20.5534 20.15 24.65 16.0534 24.65 11H24.35C24.35 15.8877 20.3877 19.85 15.5 19.85V20.15ZM6.3639 11.5085C6.62784 16.3255 10.6172 20.15 15.5 20.15V19.85C10.7774 19.85 6.91872 16.1509 6.66345 11.4921L6.3639 11.5085ZM17.2929 11.3503L6.51367 11.3503V11.6503L17.2929 11.6503V11.3503ZM15.0874 14.9148L17.4158 11.5863L17.17 11.4144L14.8416 14.7428L15.0874 14.9148ZM15.0705 15.4298C14.9338 15.2931 14.9338 15.0715 15.0705 14.9348L14.8584 14.7227C14.6046 14.9765 14.6046 15.3881 14.8584 15.6419L15.0705 15.4298ZM15.5655 15.4298C15.4288 15.5665 15.2072 15.5665 15.0705 15.4298L14.8584 15.6419C15.1122 15.8958 15.5238 15.8958 15.7776 15.6419L15.5655 15.4298ZM18.7342 11.2631L15.5522 15.445L15.7909 15.6267L18.9729 11.4447L18.7342 11.2631ZM18.7475 10.7529C18.8842 10.8895 18.8842 11.1111 18.7475 11.2478L18.9596 11.46C19.2135 11.2061 19.2135 10.7946 18.9596 10.5407L18.7475 10.7529ZM15.5522 6.55564L18.7342 10.7376L18.9729 10.556L15.7909 6.37398L15.5522 6.55564ZM15.0705 6.57087C15.2072 6.43419 15.4288 6.43419 15.5655 6.57087L15.7776 6.35874C15.5238 6.1049 15.1122 6.1049 14.8584 6.35874L15.0705 6.57087ZM15.0705 7.06585C14.9338 6.92916 14.9338 6.70756 15.0705 6.57087L14.8584 6.35874C14.6046 6.61258 14.6046 7.02414 14.8584 7.27798L15.0705 7.06585ZM17.4158 10.4144L15.0874 7.08593L14.8416 7.2579L17.17 10.5863L17.4158 10.4144ZM6.51364 10.6503L17.2929 10.6503V10.3503L6.51364 10.3503V10.6503ZM15.5 1.85C10.617 1.85 6.62746 5.67489 6.36386 10.4921L6.66341 10.5085C6.91835 5.84948 10.7772 2.15 15.5 2.15V1.85ZM24.65 11C24.65 5.94659 20.5534 1.85 15.5 1.85V2.15C20.3877 2.15 24.35 6.11228 24.35 11H24.65ZM15.5 0.85C10.0643 0.85 5.6267 5.12277 5.36245 10.493L5.66208 10.5077C5.91852 5.29648 10.2251 1.15 15.5 1.15V0.85ZM25.65 11C25.65 5.39431 21.1057 0.85 15.5 0.85V1.15C20.94 1.15 25.35 5.56 25.35 11H25.65ZM15.5 21.15C21.1057 21.15 25.65 16.6057 25.65 11H25.35C25.35 16.44 20.94 20.85 15.5 20.85V21.15ZM5.36248 11.5077C5.62708 16.8776 10.0646 21.15 15.5 21.15V20.85C10.2253 20.85 5.91889 16.7039 5.66212 11.493L5.36248 11.5077ZM5.5123 11.3503H1.5V11.6503H5.5123V11.3503ZM1.5 11.3503C1.3067 11.3503 1.15 11.1936 1.15 11.0003H0.85C0.85 11.3593 1.14101 11.6503 1.5 11.6503V11.3503ZM1.15 11.0003C1.15 10.807 1.3067 10.6503 1.5 10.6503V10.3503C1.14101 10.3503 0.85 10.6414 0.85 11.0003H1.15ZM1.5 10.6503H5.51227V10.3503H1.5V10.6503Z" fill="#552C13"/>
</svg>
