<svg width="50" height="50" viewBox="0 0 50 50" fill="none" xmlns="http://www.w3.org/2000/svg">
<path d="M23.1348 43.7139V26.8233H6.17428C6.36158 27.0255 6.49238 27.1726 6.63063 27.3109C7.79601 28.4822 8.9718 29.6431 10.1268 30.8234C10.9101 31.6246 10.9324 32.6814 10.2145 33.4128C9.49354 34.1486 8.39356 34.1218 7.59088 33.3221C5.23633 30.978 2.88921 28.6264 0.542091 26.2763C-0.181814 25.5509 -0.184787 24.4598 0.542091 23.73C2.87286 21.3888 5.20808 19.0521 7.54628 16.7169C8.35194 15.9112 9.43854 15.8532 10.1743 16.5608C10.9473 17.304 10.9235 18.3743 10.0852 19.2275C8.9272 20.4063 7.75141 21.5672 6.58603 22.737C6.46117 22.8619 6.34671 22.9972 6.1728 23.1904H23.1273V6.20018C22.9594 6.34882 22.836 6.44544 22.726 6.55544C21.5175 7.76245 20.3135 8.97242 19.1035 10.1779C18.28 10.9985 17.235 11.049 16.4858 10.3102C15.7367 9.57295 15.7917 8.46851 16.6137 7.64353C18.9563 5.28898 21.3005 2.93294 23.6402 0.573933C24.3819 -0.175242 25.4819 -0.197539 26.2221 0.545691C28.5945 2.92402 30.9654 5.30384 33.3319 7.68812C34.1182 8.48041 34.1435 9.59674 33.4047 10.3162C32.6674 11.0341 31.6195 10.9955 30.8257 10.2077C29.6276 9.01702 28.4355 7.82042 27.2404 6.62679C27.1125 6.50044 26.9773 6.38153 26.7751 6.19275V23.1681H43.7088C43.5468 22.9912 43.4324 22.8574 43.309 22.7326C42.1035 21.5226 40.889 20.323 39.6939 19.1026C39.1083 18.5051 39.0042 17.7544 39.3506 17.0513C39.691 16.3601 40.403 15.9484 41.1878 16.1045C41.5639 16.1788 41.9727 16.3794 42.2462 16.647C44.6423 19.0016 47.0162 21.3784 49.3856 23.7597C50.0902 24.4673 50.0694 25.5598 49.3648 26.2644C46.9895 28.6398 44.6082 31.0092 42.2358 33.386C41.7883 33.8334 41.277 34.0936 40.6423 33.9999C39.9214 33.8944 39.4055 33.4841 39.187 32.7855C38.9715 32.0958 39.1246 31.4625 39.6464 30.9408C40.9054 29.6803 42.1659 28.4212 43.4249 27.1592C43.5126 27.0715 43.5899 26.9749 43.7237 26.8248H26.7662V43.7972C26.9788 43.601 27.1259 43.4731 27.2642 43.3364C28.4355 42.171 29.5994 40.9997 30.7752 39.8387C31.5645 39.0583 32.6288 39.0197 33.3601 39.7243C34.1063 40.4437 34.0944 41.5422 33.2932 42.3508C30.9417 44.7247 28.5826 47.0897 26.2177 49.4502C25.4804 50.1845 24.4354 50.1889 23.6803 49.4383C21.2841 47.0585 18.8969 44.6668 16.523 42.2631C15.7976 41.5288 15.8169 40.4601 16.5037 39.7585C17.2008 39.0479 18.2964 39.0346 19.047 39.7689C20.254 40.9491 21.4417 42.1517 22.6294 43.3527C22.7676 43.4924 22.8509 43.6857 22.9594 43.8551L23.1318 43.7139H23.1348Z" fill="white"/>
</svg>
