<svg width="48" height="60" viewBox="0 0 48 60" fill="none" xmlns="http://www.w3.org/2000/svg">
<g clip-path="url(#clip0_504_1652)">
<path d="M13.6062 24.226C13.335 24.226 13.1589 24.226 12.9827 24.226C12.0529 24.226 11.1231 24.2338 10.1933 24.2201C9.52186 24.2103 9.28206 23.9431 9.29381 23.2844C9.33296 21.2193 9.74697 19.2334 10.6533 17.3748C10.9087 16.8502 10.8353 16.58 10.3959 16.2052C7.27955 13.5508 4.19063 10.8632 1.09193 8.18827C0.31676 7.51881 0.302078 7.21149 1.03026 6.4833C3.03767 4.47589 5.04312 2.46849 7.0515 0.463041C7.67986 -0.164334 8.00578 -0.152589 8.57835 0.510021C11.3198 3.68115 14.0652 6.84837 16.793 10.0312C17.0719 10.3562 17.2804 10.4453 17.6865 10.2485C20.2332 9.01433 22.9287 8.59445 25.7299 8.91646C27.3262 9.09949 28.8658 9.53013 30.3065 10.2593C30.6608 10.4394 30.8634 10.3905 31.1276 10.0821C33.8662 6.88752 36.6223 3.70758 39.3746 0.523724C39.9579 -0.15161 40.2789 -0.169228 40.9004 0.451297C42.944 2.491 44.9847 4.53266 47.0254 6.5753C47.6303 7.18115 47.6136 7.54817 46.9608 8.11291C43.7769 10.8642 40.597 13.6203 37.4014 16.3579C37.0921 16.6231 37.0539 16.8218 37.2272 17.1771C38.1492 19.0651 38.6141 21.0676 38.665 23.168C38.6845 23.9803 38.4712 24.2182 37.6422 24.2231C36.7447 24.2279 35.8481 24.223 34.9506 24.227C34.7764 24.227 34.6032 24.2446 34.3673 24.2573C34.5151 25.2223 34.7236 26.1306 34.7774 27.0487C34.8439 28.1762 35.3666 28.9279 36.221 29.6473C39.815 32.6716 43.3483 35.7673 46.904 38.8367C47.6371 39.469 47.6489 39.7949 46.9716 40.4712C44.9642 42.4766 42.9597 44.486 40.9513 46.4915C40.2672 47.1746 39.9598 47.155 39.3207 46.4122C38.7736 45.775 38.2235 45.1418 37.5668 44.5584C37.7097 45.4696 37.8506 46.3799 37.9945 47.2901C38.5965 51.0906 39.2003 54.8901 39.8003 58.6905C39.8307 58.8833 39.8541 59.0801 39.8512 59.2739C39.8453 59.6771 39.6055 59.8993 39.2307 59.9795C39.0897 60.0099 38.938 59.9962 38.7912 59.9962C28.9225 59.9962 19.0548 59.9962 9.18615 59.9962C9.12057 59.9962 9.05597 59.9971 8.9904 59.9962C8.31996 59.9805 8.02829 59.6722 8.12519 59.0018C8.32974 57.5816 8.56171 56.1663 8.78584 54.7491C9.30849 51.4478 9.83407 48.1475 10.3567 44.8462C10.3714 44.7522 10.3665 44.6543 10.3753 44.4674C10.2305 44.6054 10.1375 44.6808 10.0602 44.7698C9.55709 45.3483 9.05891 45.9306 8.55486 46.5081C8.01459 47.1267 7.66811 47.1453 7.09261 46.5727C5.555 45.0419 4.02327 43.5063 2.48957 41.9726C1.98258 41.4656 1.47559 40.9566 0.966646 40.4506C0.327526 39.8145 0.333398 39.4611 1.00482 38.8817C4.83171 35.5765 8.65567 32.2693 12.4904 28.9739C12.7948 28.7116 12.9592 28.4336 13.015 28.0343C13.1863 26.7942 13.3938 25.559 13.6032 24.226H13.6062ZM9.67454 58.4811C9.79786 58.5202 9.84386 58.5466 9.88888 58.5466C13.1344 58.5506 16.3799 58.5506 19.6264 58.5574C19.9132 58.5574 19.9856 58.4292 19.9827 58.1698C19.9739 57.3545 19.9749 56.5392 19.9807 55.723C19.9895 54.4349 19.922 53.1391 20.0365 51.8608C20.2577 49.3797 22.7564 47.7697 25.1397 48.4949C26.875 49.0225 27.9643 50.5209 27.98 52.4491C27.9957 54.292 27.9957 56.135 27.9751 57.978C27.9702 58.4106 28.0691 58.5692 28.5369 58.5662C31.6033 58.5457 34.6697 58.5564 37.7361 58.5545C37.9074 58.5545 38.0777 58.5349 38.2872 58.5222C38.2235 58.0886 38.1736 57.7186 38.1149 57.3506C37.3534 52.5352 36.5842 47.7217 35.8393 42.9044C35.7679 42.4434 35.5986 42.0851 35.2991 41.7406C32.0066 37.947 28.7229 34.1456 25.4372 30.3451C24.9498 29.7813 24.9625 29.4564 25.5048 28.9191C25.9775 28.4512 26.461 27.9942 26.9846 27.4901C26.4395 26.9596 25.9726 26.483 25.4744 26.0406C25.3775 25.9544 25.1426 25.9437 25.0066 25.9936C24.3175 26.2471 23.6451 26.2471 22.9561 25.9936C22.8201 25.9437 22.5861 25.9544 22.4883 26.0406C21.9891 26.482 21.5203 26.9567 20.9653 27.493C21.4645 27.9677 21.9167 28.3866 22.3561 28.8183C23.0364 29.4867 23.0383 29.749 22.4247 30.4586C19.1273 34.2699 15.8279 38.0801 12.5452 41.9031C12.3475 42.1341 12.2075 42.4629 12.1586 42.7663C11.495 46.8702 10.851 50.978 10.204 55.0848C10.0269 56.2094 9.85169 57.335 9.67258 58.4821L9.67454 58.4811ZM29.7535 11.6403C26.3709 9.75427 21.2316 9.88542 18.2268 11.656C18.3521 11.8087 18.4705 11.9604 18.5958 12.1062C19.9063 13.6223 21.2179 15.1383 22.5294 16.6534C23.0041 17.2015 23.0011 17.5353 22.4941 18.0433C22.0116 18.5258 21.5174 18.9956 20.9839 19.5143C21.5144 20.0272 21.9842 20.5009 22.4785 20.9462C22.5715 21.0294 22.7838 21.0686 22.9003 21.0226C23.6354 20.7338 24.3538 20.7368 25.0849 21.0333C25.1896 21.0754 25.3844 21.0412 25.4676 20.9658C25.9697 20.5097 26.4522 20.0311 26.9934 19.5094C26.4492 18.9868 25.9628 18.5316 25.4891 18.0619C24.9576 17.5343 24.9567 17.2064 25.45 16.6368C26.5383 15.3811 27.6267 14.1244 28.7121 12.8657C29.0596 12.4625 29.4011 12.0543 29.7515 11.6403H29.7535ZM17.7805 20.6829C18.1984 20.265 18.5645 19.899 18.8836 19.5789C14.0701 14.7625 9.26836 9.95687 4.52243 5.20702C3.83045 5.89312 3.10814 6.61054 2.35451 7.35928C7.46453 11.7734 12.6069 16.214 17.7805 20.6829ZM30.1851 20.6839C35.3676 16.2081 40.5089 11.7666 45.6366 7.33775C44.8722 6.58705 44.145 5.87354 43.4461 5.18646C38.6836 9.95295 33.8828 14.7576 29.0889 19.5544C29.4188 19.8941 29.7789 20.266 30.1851 20.6839ZM5.69692 42.9915C6.35757 43.6609 7.07304 44.3862 7.81982 45.1418C12.2594 40.0063 16.7088 34.86 21.1396 29.7344C20.7275 29.3252 20.3615 28.9631 20.0257 28.6294C15.2514 33.4144 10.4673 38.2103 5.6979 42.9915H5.69692ZM26.8574 29.7696C31.2725 34.8767 35.7219 40.0219 40.1135 45.1016C40.8877 44.3382 41.6129 43.6237 42.2726 42.9729C37.5159 38.2064 32.7308 33.4115 27.9575 28.6274C27.6257 28.9709 27.2694 29.3419 26.8574 29.7696ZM4.51851 41.7954C9.28206 37.0299 14.073 32.238 18.8317 27.4774C18.4872 27.1407 18.1094 26.7717 17.7061 26.3773C12.6039 30.7846 7.46258 35.2251 2.34178 39.649C3.09052 40.388 3.81675 41.1035 4.51851 41.7954ZM29.1486 27.3785C33.9689 32.2135 38.7599 37.0182 43.5019 41.7749C44.1733 41.1054 44.8859 40.3949 45.6287 39.653C40.5011 35.2241 35.3519 30.7767 30.1881 26.3166C29.7897 26.7237 29.4276 27.0927 29.1476 27.3785H29.1486ZM21.166 17.2945C16.6863 12.1121 12.2447 6.97267 7.81492 1.84699C7.06227 2.61041 6.34681 3.33468 5.70181 3.9875C10.4693 8.76182 15.2661 13.5645 20.0669 18.3711C20.3967 18.0481 20.7647 17.686 21.166 17.2935V17.2945ZM40.1546 1.84307C35.714 6.9805 31.2647 12.1287 26.8427 17.2456C27.2499 17.6488 27.6247 18.0198 27.934 18.3251C32.7181 13.5401 37.5169 8.74126 42.2687 3.9875C41.6071 3.31706 40.9014 2.60062 40.1546 1.84209V1.84307ZM21.4263 55.1377C21.4263 56.1311 21.4391 57.1255 21.4195 58.1189C21.4126 58.4644 21.532 58.5652 21.8677 58.5613C23.2683 58.5466 24.6699 58.5447 26.0705 58.5623C26.4277 58.5672 26.5501 58.4703 26.5471 58.0974C26.5295 56.2084 26.551 54.3185 26.5344 52.4285C26.5207 50.8899 25.4431 49.7771 23.9955 49.7663C22.5352 49.7556 21.4488 50.885 21.4283 52.45C21.4165 53.3456 21.4263 54.2421 21.4263 55.1377ZM12.0871 17.686C11.2963 19.3127 10.8647 20.9609 10.7737 22.7657C11.0125 22.7657 11.2053 22.7657 11.3971 22.7657C14.5291 22.7657 17.6611 22.7657 20.7921 22.7657C20.9223 22.7657 21.0554 22.7774 21.1826 22.7588C21.4733 22.7168 21.6916 22.2626 21.5017 22.0551C21.0319 21.5423 20.5357 21.0539 19.9925 20.4979C19.4688 21.0382 19.0127 21.5237 18.541 21.9935C18.0076 22.5239 17.7169 22.5337 17.1551 22.0512C16.2635 21.2868 15.3777 20.5165 14.488 19.7502C13.7001 19.0719 12.9112 18.3946 12.0871 17.687V17.686ZM27.9555 20.4852C27.4808 20.9844 27.0776 21.4092 26.6734 21.833C26.5109 22.0042 26.3054 22.1266 26.4375 22.4486C26.5706 22.7735 26.7957 22.7677 27.0639 22.7677C30.2761 22.7647 33.4894 22.7667 36.7016 22.7647C36.8572 22.7647 37.0128 22.7432 37.1959 22.7295C37.0853 20.9452 36.6801 19.297 35.8697 17.6958C35.6338 17.8964 35.4488 18.053 35.2648 18.2116C33.783 19.4898 32.3031 20.77 30.8193 22.0463C30.2556 22.5318 29.96 22.5239 29.4315 22.0003C28.9587 21.5315 28.5007 21.047 27.9546 20.4862L27.9555 20.4852ZM20.0081 26.5172C20.5249 25.973 20.9742 25.5258 21.3882 25.0472C21.489 24.9307 21.5526 24.6772 21.4939 24.5548C21.4224 24.4071 21.2022 24.2416 21.0446 24.2397C19.1733 24.2182 17.3009 24.2211 15.4296 24.2338C15.3043 24.2338 15.088 24.3513 15.0704 24.4433C14.9128 25.2664 14.7914 26.0973 14.6348 27.0751C14.8922 26.8745 15.0312 26.7746 15.1614 26.6631C15.8279 26.0905 16.4905 25.5121 17.157 24.9405C17.7218 24.456 18.0027 24.4628 18.5371 24.9963C19.0079 25.4651 19.462 25.9505 20.0091 26.5172H20.0081ZM27.9918 26.526C28.4655 26.0171 28.8736 25.5571 29.3052 25.1196C29.9972 24.4188 30.2076 24.4159 30.9368 25.0472C31.5642 25.5904 32.1906 26.1345 32.8209 26.6758C32.9471 26.7844 33.0851 26.8784 33.323 27.0604C33.1869 26.1649 33.0607 25.4132 32.9648 24.6586C32.9207 24.3082 32.7622 24.2113 32.4186 24.2172C31.2794 24.2377 30.1401 24.224 29.0008 24.224C28.301 24.224 27.6003 24.2123 26.9014 24.2377C26.7595 24.2426 26.5677 24.3611 26.4982 24.4834C26.4277 24.6077 26.4111 24.8631 26.4923 24.9542C26.9416 25.4641 27.428 25.9417 27.9927 26.5251L27.9918 26.526ZM23.9916 22.2499C23.3231 22.244 22.7418 22.8146 22.733 23.4861C22.7232 24.1516 23.2987 24.731 23.974 24.7359C24.6493 24.7408 25.2268 24.1761 25.2327 23.5037C25.2376 22.8371 24.663 22.2558 23.9916 22.2499Z" fill="#548235"/>
<path d="M30.2017 45.8132C30.5913 45.8132 30.9818 45.8005 31.3704 45.8161C31.8274 45.8357 32.1338 46.1372 32.1328 46.5365C32.1328 46.927 31.8597 47.2265 31.4125 47.2392C30.5854 47.2617 29.7564 47.2617 28.9294 47.2373C28.4899 47.2245 28.2071 46.9104 28.211 46.5296C28.2149 46.1372 28.5291 45.8337 28.9842 45.8151C29.3894 45.7985 29.7956 45.8112 30.2017 45.8122V45.8132Z" fill="#548235"/>
<path d="M22.5914 41.2188C22.1852 41.2188 21.779 41.2355 21.3748 41.2139C20.9079 41.1895 20.6016 40.89 20.5996 40.4995C20.5977 40.1109 20.8991 39.7928 21.365 39.7771C22.1597 39.7517 22.9555 39.7517 23.7502 39.7752C24.2229 39.7899 24.5215 40.0972 24.5244 40.4887C24.5283 40.8978 24.2092 41.1944 23.711 41.2169C23.3381 41.2335 22.9643 41.2198 22.5914 41.2198C22.5914 41.2198 22.5914 41.2179 22.5914 41.2169V41.2188Z" fill="#548235"/>
<path d="M13.2681 52.2554C13.6577 52.2554 14.0472 52.2427 14.4367 52.2584C14.9026 52.278 15.1962 52.5696 15.1913 52.9778C15.1865 53.3673 14.9114 53.6697 14.471 53.6815C13.644 53.704 12.8159 53.704 11.9889 53.6795C11.5553 53.6668 11.2793 53.3507 11.2813 52.9631C11.2832 52.5784 11.5719 52.2809 12.0036 52.2603C12.4244 52.2408 12.8473 52.2564 13.2691 52.2564C13.2691 52.2564 13.2691 52.2554 13.2691 52.2545L13.2681 52.2554Z" fill="#548235"/>
<path d="M20.8723 37.2814C21.2638 37.2814 21.6563 37.2667 22.0468 37.2853C22.5234 37.3078 22.8131 37.5946 22.8122 38.0047C22.8112 38.402 22.5508 38.6918 22.0898 38.7064C21.2755 38.7329 20.4593 38.7338 19.644 38.7094C19.1624 38.6947 18.8884 38.3893 18.905 37.9743C18.9207 37.5691 19.2172 37.3098 19.6988 37.2804C19.7311 37.2784 19.7643 37.2784 19.7966 37.2784C20.1558 37.2784 20.5141 37.2784 20.8733 37.2784V37.2814H20.8723Z" fill="#548235"/>
<path d="M15.108 54.4898C15.4809 54.4898 15.8548 54.48 16.2277 54.4918C16.722 54.5074 17.043 54.803 17.0371 55.2131C17.0303 55.6134 16.7318 55.9012 16.258 55.91C15.4633 55.9246 14.6676 55.9256 13.8719 55.908C13.4021 55.8982 13.1084 55.5987 13.1133 55.1945C13.1182 54.7952 13.4216 54.5094 13.8895 54.4918C14.2947 54.4771 14.7009 54.4888 15.107 54.4888L15.108 54.4898Z" fill="#548235"/>
<path d="M35.1462 53.9526C35.065 53.9526 34.9838 53.9546 34.9025 53.9526C34.3153 53.936 33.9943 53.6746 34.0021 53.2215C34.0099 52.7987 34.3398 52.5246 34.88 52.508C35.1237 52.5001 35.3694 52.4943 35.6111 52.5168C36.034 52.5559 36.3139 52.7693 36.3325 53.2225C36.3491 53.6404 36.0663 53.9095 35.5857 53.9467C35.4399 53.9575 35.2931 53.9487 35.1472 53.9487C35.1472 53.9506 35.1472 53.9516 35.1472 53.9536L35.1462 53.9526Z" fill="#548235"/>
<path d="M13.751 45.3015C13.5602 45.2859 13.3634 45.2849 13.1726 45.2497C12.8271 45.187 12.6284 44.9678 12.6039 44.6164C12.5785 44.2415 12.7595 43.9499 13.1187 43.8951C13.5298 43.8324 13.9624 43.8334 14.3754 43.8853C14.7346 43.9313 14.9421 44.2181 14.9294 44.5841C14.9167 44.9453 14.7112 45.1929 14.3373 45.2536C14.1454 45.2839 13.9497 45.2859 13.751 45.3015Z" fill="#548235"/>
</g>
<defs>
<clipPath id="clip0_504_1652">
<rect width="46.9709" height="60" fill="white" transform="translate(0.498047)"/>
</clipPath>
</defs>
</svg>
