<svg width="51" height="50" viewBox="0 0 51 50" fill="none" xmlns="http://www.w3.org/2000/svg">
<g clip-path="url(#clip0_504_1685)">
<path d="M13.4617 48.3253V41.4718C10.7065 42.8754 7.96915 42.8599 5.29794 41.3594C3.51631 40.3586 2.25298 38.8581 1.53884 36.9337C0.0963624 33.0474 1.45606 28.2961 5.70443 26.0092C4.18349 23.758 3.79121 21.3173 4.74813 18.7721C5.70443 16.2281 7.6127 14.6781 10.2555 14.0363C10.1882 13.851 10.1604 13.6656 10.0603 13.5347C9.9843 13.4352 9.8175 13.3543 9.68963 13.3524C8.59865 13.3394 7.50706 13.3487 6.41609 13.3456C5.89099 13.3444 5.36342 13.3623 4.84203 13.3172C3.14071 13.1689 1.9373 12.2917 1.30286 10.7139C0.531269 8.79393 1.20401 6.76828 2.95661 5.65631C3.33715 5.41476 3.79183 5.29183 4.20697 5.10279C4.28233 5.0682 4.375 4.98727 4.38921 4.91375C4.80002 2.7627 6.02381 1.25412 8.03031 0.41643C9.09163 -0.0258893 10.2184 -0.118554 11.3545 0.151409C13.3412 0.623381 14.7565 1.77798 15.5256 3.6844C15.6541 4.00255 15.7524 4.33676 15.8259 4.67221C15.8778 4.91005 16.0174 4.96132 16.2194 4.97121C17.1436 5.01754 18.0171 5.26094 18.8257 5.70264C20.1953 6.45013 21.1819 7.53987 21.7731 9.00088C22.3056 10.3167 22.3674 11.6505 22.0455 13.0126C21.9646 13.3549 21.82 13.6829 21.6983 14.0363C24.3436 14.7084 26.2457 16.2417 27.1946 18.7974C28.1398 21.3426 27.7401 23.7611 26.229 26.0215C28.3109 27.1323 29.7386 28.7805 30.4891 30.9822C31.0927 32.7502 31.1384 34.5646 30.596 36.345C29.8244 38.8778 28.2164 40.7268 25.7682 41.7881C23.3144 42.8513 20.8903 42.7043 18.4662 41.4601C18.4662 41.63 18.4662 41.7294 18.4662 41.8283C18.465 43.8768 18.4674 45.9259 18.4582 47.9744C18.4569 48.2252 18.4996 48.3333 18.7911 48.3327C23.3107 48.3228 27.8309 48.3259 32.3505 48.3253C32.411 48.3253 32.4715 48.3204 32.5858 48.3148C32.5858 48.0232 32.5858 47.7409 32.5858 47.458C32.5858 47.0255 32.5691 46.5925 32.5914 46.1613C32.6062 45.8691 32.5 45.7925 32.2201 45.8048C31.9477 45.8172 31.653 45.8172 31.4034 45.7264C31.0624 45.6028 30.8894 45.1951 30.9568 44.8695C31.0427 44.4513 31.3627 44.1671 31.792 44.1455C32.0373 44.1331 32.2837 44.143 32.5821 44.143C32.5821 43.9089 32.5976 43.6964 32.5722 43.4888C32.5654 43.432 32.4388 43.3585 32.3597 43.348C32.0867 43.3121 31.8037 43.3294 31.5356 43.2738C31.1637 43.1966 30.9148 42.8223 30.9426 42.4522C30.971 42.0643 31.2527 41.743 31.6308 41.6998C31.8649 41.6726 32.1058 41.6998 32.3381 41.6664C32.4271 41.6534 32.571 41.5429 32.5729 41.4743C32.5895 40.7243 32.5834 39.9737 32.5834 39.1737C32.3313 39.1737 32.099 39.1762 31.8667 39.1737C31.3262 39.1676 30.9277 38.7981 30.9407 38.3188C30.9531 37.8381 31.3237 37.5132 31.8655 37.5082C31.9273 37.5082 31.9897 37.5033 32.0508 37.5082C32.3733 37.536 32.6112 37.5231 32.7279 37.103C32.8175 36.7799 33.122 36.6397 33.5625 36.6909C33.8899 36.7292 34.1605 36.9621 34.2316 37.2716C34.2451 37.3309 34.2495 37.3927 34.2624 37.4804H47.5339C47.7544 36.8608 47.9972 36.6526 48.4747 36.6829C48.9133 36.7107 49.1333 36.9306 49.2747 37.5095C49.5323 37.5095 49.7986 37.5039 50.0642 37.5107C50.564 37.5231 50.91 37.8635 50.9087 38.3342C50.9081 38.7895 50.5442 39.1533 50.0624 39.1694C49.806 39.1781 49.549 39.1706 49.2426 39.1706V39.613C49.2426 40.1893 49.255 40.7663 49.237 41.3427C49.2284 41.6071 49.326 41.6899 49.575 41.6744C49.7591 41.6627 49.9456 41.6769 50.1297 41.6917C50.5696 41.727 50.876 42.0161 50.9056 42.4151C50.939 42.8525 50.7036 43.1991 50.2638 43.2843C49.945 43.3461 49.6139 43.3467 49.2655 43.377V44.1412C49.5181 44.1412 49.7727 44.127 50.0247 44.1443C50.3818 44.169 50.6727 44.3203 50.8346 44.6589C50.9779 44.9579 50.947 45.2606 50.7265 45.4898C50.5844 45.6374 50.3669 45.7554 50.1656 45.7925C49.8876 45.8431 49.5929 45.8054 49.2741 45.8054V48.3265C49.5163 48.3265 49.7714 48.3463 50.0222 48.3222C50.4967 48.2771 50.9303 48.78 50.9143 49.1494C50.8933 49.638 50.5424 49.9939 50.013 49.9945C46.9754 49.9964 43.9385 49.9957 40.9009 49.9957C27.9384 49.9957 14.9758 49.9951 2.0139 49.9994C1.66425 49.9994 1.36216 49.9383 1.14903 49.6374C0.968028 49.3823 0.929727 49.1105 1.07058 48.8263C1.22316 48.518 1.46595 48.3296 1.81869 48.3278C2.77622 48.3222 3.73376 48.3253 4.69129 48.3253C7.51201 48.3253 10.3333 48.3253 13.154 48.3253H13.4605H13.4617ZM16.8069 35.4159C16.9094 35.3473 16.9638 35.3226 17.0033 35.2831C18.3562 33.9302 19.7036 32.5717 21.0645 31.2268C21.2295 31.0637 21.4537 30.921 21.6749 30.8642C22.0146 30.7771 22.3958 31.0081 22.5404 31.309C22.6967 31.6352 22.6157 32.0299 22.326 32.3209C20.5963 34.0562 18.869 35.7946 17.1294 37.52C16.944 37.7041 16.9552 37.8357 17.0861 38.0179C18.1184 39.4474 19.5096 40.3444 21.2214 40.7083C22.4329 40.9659 23.6357 40.8219 24.7822 40.3512C26.9432 39.4641 28.3727 37.9042 29.0139 35.6475C29.413 34.2434 29.3648 32.8497 28.8706 31.4739C28.1484 29.4643 26.8066 28.0503 24.8199 27.2534C23.8525 26.8654 23.7314 26.3255 24.4443 25.5415C25.0361 24.891 25.4964 24.1516 25.7361 23.3157C26.158 21.8467 26.1487 20.3789 25.463 18.9704C24.4647 16.9206 22.8381 15.7901 20.5512 15.619C20.3041 15.6005 20.039 15.5331 19.8253 15.4127C19.4213 15.1853 19.4071 14.5781 19.7141 14.1049C20.8014 12.4313 20.899 10.6936 19.905 8.94096C18.7318 6.87145 16.2145 6.05477 14.0714 7.07099C11.9438 8.0798 11.0277 10.2376 11.4855 12.4597C11.6257 13.1411 11.9698 13.7311 12.3312 14.3149C12.6648 14.853 12.4022 15.4343 11.7882 15.548C11.5664 15.5893 11.3409 15.619 11.1154 15.6351C10.2493 15.6956 9.4524 15.9748 8.72221 16.4283C7.20745 17.3704 6.28204 18.7282 5.99787 20.4901C5.82366 21.5693 5.92744 22.6319 6.33455 23.6648C6.6391 24.4376 7.08698 25.1029 7.65224 25.7028C8.14151 26.2223 8.00128 26.8648 7.35448 27.144C6.97208 27.3096 6.57177 27.4467 6.2147 27.6561C4.32558 28.765 3.13206 30.3996 2.76572 32.5593C2.39383 34.7499 2.85962 36.7762 4.36944 38.4528C6.15725 40.4389 8.38676 41.2253 11.0302 40.6144C12.6673 40.2363 13.9398 39.3004 14.9066 37.9333C15.0154 37.7788 14.9894 37.7028 14.864 37.5787C13.9145 36.6378 12.9724 35.6883 12.0303 34.74C11.2038 33.9079 10.3716 33.0813 9.55681 32.2381C9.19294 31.8613 9.23928 31.351 9.62661 31.0291C9.97133 30.7425 10.4124 30.774 10.7794 31.1379C11.8907 32.2399 12.994 33.3507 14.1017 34.4565C14.4217 34.7765 14.7454 35.0928 15.1173 35.4604C15.1284 35.296 15.1389 35.2176 15.1389 35.1391C15.1389 32.5037 15.142 29.8677 15.1303 27.2323C15.1303 27.094 15.0407 26.9247 14.9394 26.8222C13.7224 25.5916 12.4943 24.3727 11.2717 23.1477C10.9004 22.7752 10.8794 22.2742 11.2099 21.9461C11.5689 21.5903 12.0594 21.5909 12.4405 21.9591C12.7315 22.2402 13.0126 22.5318 13.2974 22.819C13.8855 23.4127 14.473 24.007 15.1179 24.6594C15.1278 24.4617 15.1383 24.3536 15.1383 24.2455C15.1389 23.1335 15.1408 22.0215 15.1358 20.9095C15.1346 20.6272 15.2174 20.3925 15.4367 20.2053C15.7029 19.9786 16.0094 19.9705 16.3046 20.0861C16.6259 20.2115 16.7952 20.4888 16.7982 20.8329C16.8081 21.9653 16.8044 23.0977 16.8063 24.2306C16.8063 24.3375 16.8063 24.445 16.8063 24.6297C16.9459 24.5 17.0268 24.4289 17.1034 24.3529C17.8991 23.561 18.6886 22.7622 19.4923 21.977C19.8827 21.5952 20.3819 21.5909 20.7192 21.9338C21.054 22.2742 21.0312 22.7894 20.6562 23.165C19.4559 24.3678 18.2568 25.5718 17.0484 26.7659C16.8742 26.9377 16.797 27.1069 16.7989 27.354C16.81 28.9293 16.8057 30.5046 16.8063 32.0793C16.8063 33.1703 16.8063 34.2607 16.8063 35.4153L16.8069 35.4159ZM9.6921 11.656C9.6921 11.5004 9.68963 11.399 9.6921 11.2984C9.73287 9.82313 10.182 8.49185 11.1086 7.33539C11.8784 6.37477 12.852 5.69461 14.0097 5.28132C14.1666 5.22511 14.2327 5.16395 14.1771 4.99345C14.1425 4.88781 14.1554 4.76611 14.1196 4.66047C13.6291 3.22479 12.6951 2.24563 11.2031 1.8447C9.78723 1.46416 8.52143 1.77798 7.41996 2.71513C6.48343 3.51205 6.03987 4.55978 5.98427 5.78295C5.95709 6.37662 5.72852 6.60334 5.14226 6.67933C4.89763 6.71083 4.64064 6.71145 4.41268 6.79238C3.61206 7.0784 3.06348 7.61956 2.7719 8.43625C2.27028 9.84043 3.37669 11.577 4.86674 11.6326C6.07941 11.6777 7.29455 11.6505 8.50846 11.6548C8.88777 11.656 9.26708 11.6548 9.69148 11.6548L9.6921 11.656ZM34.2501 48.3049H47.5784C47.5784 47.5858 47.5654 46.8878 47.5845 46.1909C47.5926 45.9018 47.5215 45.8048 47.2126 45.8061C44.2295 45.8178 41.2469 45.8129 38.2637 45.8129C37.0399 45.8129 35.8155 45.8147 34.5917 45.8141C34.4169 45.8141 34.2501 45.8135 34.2501 46.0544C34.2501 46.7932 34.2501 47.5321 34.2501 48.3055V48.3049ZM47.5765 39.1737C47.4307 39.1737 47.33 39.1737 47.2287 39.1737C45.14 39.1737 43.0514 39.1731 40.9627 39.1737C38.8432 39.1737 36.7236 39.1793 34.6041 39.17C34.3211 39.1688 34.2328 39.2485 34.2439 39.5364C34.2668 40.1424 34.2594 40.7503 34.247 41.3569C34.2421 41.5904 34.3415 41.6714 34.5553 41.6714C34.9049 41.6714 35.2546 41.6769 35.6048 41.6769C38.5781 41.6769 41.5514 41.6769 44.5241 41.6769C45.4397 41.6769 46.3552 41.6782 47.2707 41.6757C47.4122 41.6757 47.5765 41.6973 47.5765 41.4743C47.5765 40.7249 47.5765 39.9756 47.5765 39.1737ZM16.7692 48.3148C16.784 48.2512 16.797 48.2221 16.7976 48.1931C16.7989 45.5911 16.7995 42.989 16.7964 40.387C16.7964 40.311 16.7754 40.2159 16.7278 40.1622C16.485 39.8897 16.2299 39.6284 16.0032 39.3887C15.7789 39.5944 15.5732 39.7878 15.3632 39.9756C15.1914 40.1288 15.1358 40.3098 15.1365 40.5439C15.1457 43.0125 15.1426 45.4805 15.1433 47.9491C15.1433 48.0683 15.1433 48.1869 15.1433 48.3148H16.7686H16.7692ZM47.5604 43.3677C47.456 43.3585 47.3665 43.3443 47.2763 43.3443C43.0483 43.3443 38.8209 43.3492 34.5929 43.3387C34.2167 43.3375 34.2581 43.5426 34.2451 43.7878C34.2322 44.0448 34.2909 44.1498 34.5787 44.1492C38.7962 44.1399 43.0137 44.1424 47.2312 44.1412C47.3393 44.1412 47.448 44.1294 47.5598 44.1226V43.3677H47.5604Z" fill="#548235"/>
<path d="M41.7852 20.8461C40.1796 20.8461 38.5735 20.8399 36.9679 20.8485C36.0196 20.8535 35.1424 20.6385 34.3702 20.0726C33.4145 19.3727 32.8252 18.4578 32.6664 17.2606C32.457 15.6828 32.9938 14.4207 34.191 13.4125C34.6346 13.0394 35.1473 12.7836 35.7083 12.6588C35.9399 12.607 36.0011 12.5013 36.0369 12.3024C36.3069 10.813 37.0544 9.61203 38.2547 8.69774C38.8582 8.23812 39.5298 7.92059 40.2692 7.7192C41.1656 7.47518 42.0669 7.45912 42.9559 7.63889C44.1519 7.88044 45.1804 8.46855 46.0175 9.37296C46.8243 10.2446 47.3062 11.2713 47.5187 12.4346C47.5317 12.5069 47.6311 12.5995 47.7071 12.6193C49.1842 13.006 50.2022 13.9271 50.6952 15.3504C51.3884 17.3508 50.4203 19.5179 48.5924 20.4081C47.9801 20.7065 47.3401 20.8473 46.6637 20.8436C46.5506 20.843 46.437 20.8467 46.3239 20.8467C44.811 20.8467 43.2975 20.8467 41.7846 20.8461H41.7852ZM41.7339 19.1707V19.1726C43.35 19.1726 44.9661 19.1695 46.5815 19.1744C47.0504 19.1763 47.4903 19.0953 47.9128 18.8766C48.8666 18.3837 49.4226 17.247 49.1941 16.1925C48.9309 14.9792 47.9727 14.2397 46.8984 14.189C46.2689 14.1594 45.9168 13.8067 45.9051 13.2019C45.8903 12.4531 45.6716 11.7538 45.2657 11.1181C44.1834 9.42114 42.099 8.73975 40.2136 9.48848C39.1233 9.92153 38.3208 10.6968 37.9186 11.8069C37.7333 12.3185 37.682 12.8806 37.5918 13.4236C37.5183 13.8641 37.228 14.1155 36.7998 14.1792C36.3822 14.2416 35.9393 14.3126 35.5717 14.5035C34.4283 15.0978 33.9612 16.476 34.4653 17.6288C34.9169 18.6617 35.7484 19.1732 36.8863 19.1713C38.5024 19.1682 40.1185 19.1707 41.7339 19.1707Z" fill="#548235"/>
</g>
<defs>
<clipPath id="clip0_504_1685">
<rect width="49.9407" height="50" fill="white" transform="translate(0.983398)"/>
</clipPath>
</defs>
</svg>
