<svg width="53" height="50" viewBox="0 0 53 50" fill="none" xmlns="http://www.w3.org/2000/svg">
<g clip-path="url(#clip0_504_1647)">
<path d="M47.7959 22.4668V28.8892C47.9543 28.8892 48.0896 28.8892 48.2229 28.8892C49.3513 28.8892 50.4797 28.8853 51.608 28.8892C52.2225 28.8931 52.4929 29.1481 52.4949 29.7548C52.5026 31.886 52.5007 34.0171 52.4949 36.1483C52.4949 36.755 52.2282 37.0042 51.608 37.0061C50.4797 37.0119 49.3513 37.0061 48.2229 37.0061C48.0877 37.0061 47.9543 37.0061 47.7708 37.0061C47.7708 37.2129 47.7708 37.3732 47.7708 37.5317C47.7708 41.3419 47.7708 45.154 47.7708 48.9642C47.7708 49.7621 47.5409 49.994 46.741 49.9959C44.7219 49.9959 42.7047 49.9959 40.6856 49.9959C39.905 49.9959 39.6732 49.7621 39.6732 48.9874C39.6732 45.1636 39.6732 41.3399 39.6732 37.5182C39.6732 37.3694 39.6732 37.2206 39.6732 37.039H36.1354V37.5046C36.1354 41.3148 36.1354 45.1269 36.1354 48.9371C36.1354 49.7699 35.9152 49.994 35.0921 49.9959C33.0865 49.9959 31.0809 49.9959 29.0754 49.9959C28.2523 49.9959 28.0378 49.7757 28.0378 48.939C28.0378 45.1405 28.0378 41.3419 28.0378 37.5433C28.0378 37.3829 28.0378 37.2225 28.0378 37.0293C27.862 37.0197 27.7287 37.0061 27.5934 37.0061C26.7027 37.0061 25.8139 37.0197 24.9232 36.9984C24.5773 36.9887 24.4788 37.0931 24.4788 37.4409C24.4904 41.2008 24.4865 44.9627 24.4865 48.7226C24.4865 49.8665 24.3571 49.9959 23.2133 49.9959C21.283 49.9959 19.3528 49.9959 17.4226 49.9959C16.6169 49.9959 16.4005 49.7776 16.4005 48.9642C16.4005 45.1405 16.4005 41.3167 16.4005 37.495C16.4005 37.1717 16.235 37.0094 15.904 37.0081C15.0132 37.0081 14.1244 37.0197 13.2337 37.0023C12.9169 36.9945 12.8357 37.1027 12.8357 37.41C12.8454 41.2588 12.8415 45.1076 12.8415 48.9545C12.8415 49.7853 12.6309 49.9979 11.7943 49.9979C9.78872 49.9979 7.78316 49.9979 5.77759 49.9979C4.97962 49.9979 4.75162 49.7679 4.75162 48.9622C4.75162 45.1385 4.75162 41.3148 4.75162 37.493C4.75162 37.171 4.5861 37.01 4.25506 37.01C3.16533 37.01 2.07367 37.01 0.983944 37.01C0.242001 37.01 0.00627946 36.782 0.00627946 36.0517C0.00434732 33.9823 0.00434732 31.9149 0.00627946 29.8456C0.00627946 29.1191 0.247797 28.8892 0.987808 28.8892C2.09106 28.8892 3.19432 28.8892 4.29757 28.8892C4.43282 28.8892 4.56807 28.8892 4.7265 28.8892V22.4668C4.57 22.4668 4.43668 22.4668 4.30143 22.4668C3.17306 22.4668 2.04469 22.4687 0.916319 22.4668C0.276779 22.4668 0.00627946 22.2136 0.00434732 21.5896C-0.00144911 19.4584 -0.00144911 17.3273 0.00434732 15.1961C0.00434732 14.6029 0.269051 14.3556 0.862219 14.3537C2.00218 14.3498 3.14408 14.3537 4.28404 14.3537C4.41929 14.3537 4.55454 14.3537 4.7265 14.3537C4.73617 14.1585 4.74969 14.0001 4.74969 13.8417C4.74969 10.6826 4.75549 7.52356 4.74389 4.36451C4.74389 3.94524 4.86562 3.62643 5.16703 3.33081C6.17175 2.35122 7.15714 1.35037 8.15026 0.359178C8.59466 -0.0852145 8.96949 -0.0910109 9.41388 0.347586C10.4399 1.36003 11.4581 2.38213 12.4879 3.38878C12.7391 3.63416 12.8454 3.90273 12.8434 4.25438C12.8338 7.47526 12.8434 10.6981 12.8299 13.919C12.8299 14.2648 12.9227 14.3672 13.2685 14.3595C14.1708 14.3363 15.0731 14.3518 15.9754 14.3518C16.0972 14.3518 16.2189 14.3518 16.3947 14.3518V13.8281C16.3947 10.6826 16.4005 7.53516 16.3889 4.38963C16.3889 3.9433 16.5145 3.60904 16.8391 3.2941C17.84 2.32803 18.8118 1.33105 19.7972 0.349518C20.2551 -0.1084 20.5952 -0.112264 21.0493 0.335993C22.0752 1.34844 23.0896 2.37247 24.1214 3.37912C24.3957 3.64769 24.4885 3.94717 24.4885 4.32007C24.4807 7.50424 24.4885 10.6884 24.4769 13.8726C24.4769 14.2378 24.5484 14.3769 24.9483 14.3633C25.8371 14.3305 26.7278 14.3382 27.6185 14.3614C27.9509 14.3691 28.0436 14.2725 28.0417 13.9402C28.0301 10.756 28.0417 7.57187 28.0262 4.3877C28.0243 3.93751 28.1595 3.60711 28.4822 3.2941C29.4908 2.31644 30.4723 1.31366 31.4674 0.322468C31.8905 -0.100672 32.2383 -0.106468 32.6634 0.314739C33.7164 1.35423 34.7578 2.40339 35.8147 3.43901C36.0717 3.69019 36.1354 3.98388 36.1354 4.32394C36.1316 7.50811 36.1393 10.6923 36.1258 13.8765C36.1258 14.2397 36.1934 14.3788 36.5953 14.3653C37.5961 14.3324 38.5989 14.3537 39.6732 14.3537V13.9016C39.6732 10.7058 39.677 7.50811 39.6674 4.31234C39.6674 3.93558 39.7756 3.64382 40.048 3.37719C41.0682 2.37634 42.0729 1.36003 43.0834 0.349518C43.5433 -0.1084 43.8756 -0.112264 44.3335 0.341789C45.3575 1.35616 46.3758 2.37634 47.4056 3.38491C47.6665 3.63996 47.7766 3.92205 47.7766 4.28723C47.7689 7.49651 47.7766 10.7058 47.765 13.9151C47.765 14.2455 47.8326 14.3711 48.1959 14.3633C49.3358 14.3382 50.4777 14.3518 51.6177 14.3556C52.234 14.3556 52.4929 14.6049 52.4949 15.2212C52.5007 17.3389 52.5007 19.4584 52.4949 21.576C52.4949 22.2078 52.2263 22.4668 51.5984 22.4706C50.47 22.4745 49.3416 22.4706 48.2132 22.4706C48.0799 22.4706 47.9447 22.4706 47.7959 22.4706V22.4668ZM26.2583 15.7989C18.1491 15.7989 10.0399 15.8009 1.93263 15.7893C1.55006 15.7893 1.44573 15.8878 1.45152 16.2684C1.47471 17.6712 1.46118 19.0758 1.46118 20.4786C1.46118 20.8315 1.63765 21.0086 1.99059 21.0099C9.32307 21.0099 16.6536 21.0099 23.9861 21.0099C32.8353 21.0099 41.6826 21.0099 50.5318 21.0099C50.8706 21.0099 51.04 20.8386 51.04 20.496C51.04 19.1048 51.04 17.7137 51.04 16.3225C51.04 15.9722 50.8635 15.797 50.5106 15.797C42.4265 15.797 34.3424 15.797 26.2583 15.797V15.7989ZM26.2564 35.5512C34.3656 35.5512 42.4767 35.5493 50.5859 35.559C50.9472 35.559 51.0535 35.4624 51.0477 35.0991C51.0265 33.7466 51.0419 32.3922 51.038 31.0377C51.0361 30.2649 51.1366 30.348 50.3657 30.348C39.4858 30.348 28.6059 30.348 17.726 30.348C12.4609 30.348 7.19772 30.3518 1.93263 30.3402C1.54813 30.3402 1.44573 30.4484 1.45152 30.8271C1.47278 32.2183 1.45925 33.6094 1.46118 35.0006C1.46118 35.369 1.64152 35.5532 2.00218 35.5532C10.0863 35.5532 18.1723 35.5532 26.2564 35.5532V35.5512ZM11.3731 37.0506C11.2997 37.0332 11.2649 37.0158 11.2282 37.0158C9.64961 37.0139 8.07104 37.0158 6.49248 37.0061C6.20846 37.0061 6.20653 37.1646 6.20653 37.3694C6.20846 40.9651 6.21039 44.5627 6.20266 48.1585C6.20266 48.4599 6.30313 48.541 6.59296 48.5391C8.07104 48.5275 9.54913 48.5333 11.0292 48.5333C11.1374 48.5333 11.2475 48.5159 11.3731 48.5063V37.0506ZM17.8883 37.0332C17.8728 37.1221 17.8593 37.1723 17.8593 37.2206C17.8593 40.8917 17.8593 44.5647 17.8516 48.2357C17.8516 48.5082 17.9829 48.5372 18.1993 48.5352C19.691 48.5314 21.1826 48.5256 22.6742 48.5391C22.9582 48.541 23.0355 48.4444 23.0355 48.1701C23.0278 44.5743 23.0278 40.9767 23.0355 37.381C23.0355 37.0738 22.9312 37.0023 22.6452 37.0042C21.1787 37.0158 19.7122 37.01 18.2457 37.01C18.1356 37.01 18.0254 37.0235 17.8863 37.0313L17.8883 37.0332ZM46.314 42.7832C46.314 40.9921 46.3062 39.1991 46.3197 37.408C46.3217 37.0969 46.2328 37.0003 45.9179 37.0042C44.4514 37.0197 42.9868 37.0177 41.5203 37.0042C41.215 37.0023 41.1126 37.0834 41.1146 37.4022C41.1261 40.9728 41.1261 44.5434 41.1146 48.116C41.1146 48.4464 41.2034 48.5449 41.5358 48.541C42.9887 48.5256 44.4436 48.5256 45.8966 48.541C46.2231 48.5449 46.3255 48.456 46.3217 48.1218C46.3062 46.3423 46.314 44.5627 46.314 42.7832ZM29.5159 48.512C29.6647 48.5217 29.7748 48.5333 29.8849 48.5333C31.3495 48.5333 32.816 48.5256 34.2806 48.541C34.5955 48.5449 34.6844 48.4425 34.6844 48.1353C34.6747 44.5531 34.6747 40.9709 34.6844 37.3887C34.6844 37.0873 34.5897 37.0042 34.298 37.0061C32.8199 37.0177 31.3418 37.0119 29.8637 37.0119C29.7536 37.0119 29.6454 37.0274 29.5159 37.0351V48.512ZM29.4946 14.3498C31.1969 14.3498 32.8237 14.3498 34.4506 14.3498C34.7076 14.3498 34.6767 14.1701 34.6767 14.0098C34.6767 10.8894 34.6805 7.77088 34.6689 4.65047C34.6689 4.48624 34.5781 4.28336 34.4622 4.16357C33.7666 3.44288 33.0537 2.73765 32.3426 2.03048C32.2595 1.9474 32.161 1.87591 32.0122 1.75225C31.2452 2.5425 30.511 3.31343 29.7574 4.06503C29.5623 4.25824 29.4889 4.45339 29.4889 4.72389C29.4966 7.78054 29.4946 10.8391 29.4946 13.8958V14.3479V14.3498ZM20.4001 1.71554C19.5538 2.58887 18.7481 3.41196 17.9578 4.24665C17.8786 4.33166 17.8593 4.49783 17.8593 4.62728C17.8535 7.74576 17.8593 10.8662 17.8477 13.9846C17.8477 14.2996 17.9598 14.3576 18.2399 14.3556C19.3664 14.3421 20.4947 14.3498 21.6212 14.3498C22.0694 14.3498 22.5196 14.3498 22.9891 14.3498C23.0046 14.2204 23.0278 14.1238 23.0278 14.0272C23.0278 10.8952 23.0297 7.76315 23.0239 4.63308C23.0239 4.50556 22.993 4.33939 22.9118 4.25631C22.11 3.42935 21.2946 2.61785 20.4001 1.71554ZM43.75 1.7851C43.6341 1.88171 43.5549 1.93967 43.4853 2.0073C42.7723 2.71253 42.0516 3.41003 41.3561 4.13072C41.2266 4.26597 41.13 4.4959 41.13 4.68331C41.1165 7.76701 41.1242 10.8488 41.1126 13.9325C41.1126 14.2552 41.186 14.3653 41.5261 14.3595C42.9791 14.3402 44.434 14.3382 45.887 14.3595C46.2502 14.3653 46.3198 14.2378 46.3178 13.9093C46.3062 11.2893 46.314 8.67126 46.3101 6.05127C46.3101 5.48902 46.4357 4.86687 46.2386 4.37997C46.0454 3.90659 45.514 3.57233 45.1276 3.18011C44.6736 2.71832 44.2176 2.25847 43.75 1.7851ZM11.3673 14.3498C11.3789 14.23 11.3924 14.1585 11.3924 14.0851C11.3924 10.9261 11.3963 7.76895 11.3847 4.60989C11.3847 4.45919 11.29 4.2737 11.1818 4.16164C10.4843 3.44095 9.77133 2.73765 9.0603 2.02855C8.98302 1.95126 8.89607 1.88171 8.72604 1.731C7.96864 2.52125 7.23056 3.30376 6.47316 4.06889C6.28188 4.26404 6.20073 4.45725 6.20073 4.72969C6.20846 7.78827 6.20653 10.8449 6.20653 13.9035C6.20653 13.9789 6.18141 14.0697 6.21425 14.1257C6.26835 14.2126 6.3611 14.3402 6.44032 14.3402C8.06911 14.3518 9.69598 14.3498 11.3673 14.3498ZM6.23744 22.4861C6.22392 22.5808 6.21039 22.6291 6.21039 22.6774C6.21039 24.6462 6.21039 26.6131 6.20266 28.582C6.20266 28.8428 6.31279 28.8931 6.54272 28.8911C8.04786 28.8834 9.55107 28.8892 11.0562 28.8873C11.1625 28.8873 11.2687 28.8679 11.3634 28.8583V22.4861H6.23937H6.23744ZM17.8825 22.4841V28.8583H23.0007V22.4841H17.8825ZM46.2888 22.4938H41.1455V28.8544C41.2421 28.8679 41.3136 28.8873 41.3851 28.8892C42.925 28.8892 44.4649 28.8834 46.0029 28.8969C46.3024 28.8989 46.314 28.7501 46.314 28.524C46.3101 26.6209 46.312 24.7196 46.3101 22.8165C46.3101 22.7179 46.2966 22.6213 46.2888 22.4957V22.4938ZM34.6496 28.8641V22.4899H29.5275V28.8641H34.6496ZM12.8608 28.866C12.9961 28.8737 13.1062 28.8873 13.2163 28.8873C14.1438 28.8873 15.0712 28.8757 15.9986 28.895C16.3136 28.9008 16.4024 28.8023 16.4005 28.4912C16.387 26.6112 16.3947 24.7312 16.3928 22.8493C16.3928 22.7295 16.3754 22.6097 16.3677 22.488H12.8608V28.8641V28.866ZM24.5155 22.4899C24.5039 22.5711 24.4865 22.631 24.4865 22.6909C24.4865 24.6578 24.4865 26.6228 24.4788 28.5897C24.4788 28.8583 24.6025 28.8931 24.8247 28.8931C25.7637 28.8853 26.7027 28.8776 27.6417 28.8969C27.9605 28.9027 28.0397 28.7965 28.0378 28.4912C28.0262 26.6131 28.032 24.7351 28.0301 22.8551C28.0301 22.7353 28.0146 22.6155 28.0069 22.4919H24.5155V22.4899ZM39.6403 28.8641V22.4899H36.1547V28.8641H39.6403Z" fill="#548235"/>
</g>
<defs>
<clipPath id="clip0_504_1647">
<rect width="52.4983" height="50" fill="white"/>
</clipPath>
</defs>
</svg>
