<svg xmlns="http://www.w3.org/2000/svg" width="220" height="220" fill="none"><path fill="#D4E1BD" d="M220 110c0 60.751-49.249 110-110 110S0 170.751 0 110 49.249 0 110 0s110 49.249 110 110Zm-176.688 0c0 36.83 29.858 66.687 66.688 66.687S176.687 146.83 176.687 110 146.83 43.312 110 43.312 43.312 73.17 43.312 110Z"/><path fill="#552C13" d="M190.991 35.566a109.994 109.994 0 0 1 28.283 61.82l-43.026 4.967a66.692 66.692 0 0 0-17.147-37.479l31.89-29.308Z"/><path fill="#548235" d="M191.307 35.911a110 110 0 1 0 24.815 103.04l-41.786-11.399a66.687 66.687 0 1 1-15.043-62.468l32.014-29.173Z"/><path fill="#3A3737" d="M97.35 100H84.246v-2.884l6.692-6.888c1.494-1.587 2.24-2.893 2.24-3.92 0-.765-.242-1.381-.728-1.848-.466-.467-1.073-.7-1.82-.7-1.493 0-2.585.765-3.276 2.296l-3.248-1.904c.598-1.325 1.466-2.343 2.604-3.052 1.158-.728 2.446-1.092 3.864-1.092 1.774 0 3.295.56 4.564 1.68 1.27 1.101 1.904 2.595 1.904 4.48 0 2.035-1.073 4.125-3.22 6.272l-3.836 3.836h7.364V100Zm6.484-12.46h2.016c1.904 0 3.49.57 4.76 1.708 1.288 1.12 1.932 2.688 1.932 4.704 0 2.016-.682 3.593-2.044 4.732-1.326 1.139-2.978 1.708-4.956 1.708-1.606 0-3.015-.355-4.228-1.064-1.195-.728-2.063-1.773-2.604-3.136l3.304-1.932c.466 1.568 1.642 2.352 3.528 2.352.989 0 1.754-.233 2.296-.7.56-.485.84-1.139.84-1.96 0-.803-.271-1.447-.812-1.932-.542-.485-1.279-.728-2.212-.728h-5.936l.784-10.892h11.116v3.612h-7.532l-.252 3.528Zm11.461 8.596h3.92l-2.1 7.784h-2.94l1.12-7.784Zm17.565-6.328c1.81 1.083 2.716 2.66 2.716 4.732 0 1.81-.635 3.239-1.904 4.284-1.251 1.045-2.959 1.568-5.124 1.568-2.184 0-3.902-.523-5.152-1.568-1.251-1.045-1.876-2.473-1.876-4.284 0-2.053.896-3.63 2.688-4.732-1.363-.97-2.044-2.324-2.044-4.06 0-1.81.606-3.22 1.82-4.228 1.232-1.008 2.753-1.512 4.564-1.512 1.829 0 3.341.504 4.536 1.512 1.213 1.008 1.82 2.417 1.82 4.228 0 1.736-.682 3.09-2.044 4.06Zm-1.792-3.864c0-.71-.234-1.27-.7-1.68-.467-.41-1.074-.616-1.82-.616-.747 0-1.354.205-1.82.616-.467.41-.7.97-.7 1.68 0 .728.233 1.297.7 1.708.466.41 1.073.616 1.82.616.746 0 1.353-.205 1.82-.616.466-.41.7-.98.7-1.708Zm-.196 10.08c.578-.485.868-1.148.868-1.988 0-.84-.29-1.493-.868-1.96-.579-.485-1.354-.728-2.324-.728-.971 0-1.746.243-2.324.728-.579.467-.868 1.12-.868 1.96 0 .84.289 1.503.868 1.988.578.485 1.353.728 2.324.728.97 0 1.745-.243 2.324-.728ZM80.549 117h1.116v6h-1.02v-4.356l-1.908 3.072h-.132l-1.908-3.072V123h-1.032v-6h1.116l1.884 3.036L80.549 117Zm3.262 0h4.452v6h-1.044v-4.992h-2.364v2.448c0 .96-.192 1.644-.576 2.052-.384.4-.948.564-1.692.492v-.984c.416.056.724-.036.924-.276.2-.248.3-.684.3-1.308V117Zm10.186 2.496V117h1.044v6h-1.044v-2.508h-3.108V123h-1.044v-6h1.044v2.496h3.108ZM99.63 117h5.196v6h-1.044v-5.004h-3.108V123H99.63v-6Zm11.849 5.244c-.608.608-1.356.912-2.244.912-.888 0-1.636-.304-2.244-.912-.608-.608-.912-1.356-.912-2.244 0-.888.304-1.636.912-2.244.608-.608 1.356-.912 2.244-.912.888 0 1.636.304 2.244.912.616.616.924 1.364.924 2.244 0 .88-.308 1.628-.924 2.244Zm-2.244-.108c.6 0 1.104-.204 1.512-.612.408-.408.612-.916.612-1.524s-.204-1.116-.612-1.524c-.408-.408-.912-.612-1.512-.612a2.04 2.04 0 0 0-1.5.612c-.408.408-.612.916-.612 1.524s.204 1.116.612 1.524a2.04 2.04 0 0 0 1.5.612Zm10.159-1.656h-5.028c.104.528.348.944.732 1.248.384.296.864.444 1.44.444.792 0 1.368-.292 1.728-.876l.888.504c-.592.904-1.472 1.356-2.64 1.356-.944 0-1.72-.296-2.328-.888-.592-.608-.888-1.364-.888-2.268 0-.912.292-1.664.876-2.256.584-.6 1.34-.9 2.268-.9.88 0 1.596.312 2.148.936.56.608.84 1.352.84 2.232 0 .152-.012.308-.036.468Zm-2.952-2.652c-.552 0-1.016.156-1.392.468-.368.312-.596.736-.684 1.272h4.008c-.088-.552-.308-.98-.66-1.284a1.88 1.88 0 0 0-1.272-.456Zm7.299 2.1c.664.28.996.756.996 1.428 0 .52-.204.952-.612 1.296-.408.336-.972.504-1.692.504-1.2 0-2.004-.48-2.412-1.44l.876-.516c.224.656.74.984 1.548.984.392 0 .7-.084.924-.252a.798.798 0 0 0 .336-.672.728.728 0 0 0-.276-.588c-.176-.152-.416-.228-.72-.228h-.876v-.948h.648c.304 0 .54-.072.708-.216.168-.152.252-.356.252-.612 0-.264-.1-.472-.3-.624-.2-.16-.468-.24-.804-.24-.672 0-1.128.284-1.368.852l-.852-.492c.424-.88 1.164-1.32 2.22-1.32.64 0 1.152.168 1.536.504.392.328.588.74.588 1.236 0 .608-.24 1.056-.72 1.344Zm7.193-2.928v5.004h.828v2.604h-1.032V123h-4.5v1.608h-1.032v-2.604h.732c.384-.528.576-1.268.576-2.22V117h4.428Zm-3.816 5.004h2.784v-4.032h-2.364v1.812c0 .88-.14 1.62-.42 2.22Zm10.599.24c-.608.608-1.356.912-2.244.912-.888 0-1.636-.304-2.244-.912-.608-.608-.912-1.356-.912-2.244 0-.888.304-1.636.912-2.244.608-.608 1.356-.912 2.244-.912.888 0 1.636.304 2.244.912.616.616.924 1.364.924 2.244 0 .88-.308 1.628-.924 2.244Zm-2.244-.108c.6 0 1.104-.204 1.512-.612.408-.408.612-.916.612-1.524s-.204-1.116-.612-1.524c-.408-.408-.912-.612-1.512-.612a2.04 2.04 0 0 0-1.5.612c-.408.408-.612.916-.612 1.524s.204 1.116.612 1.524a2.04 2.04 0 0 0 1.5.612Zm6.511-2.232 2.964 3.096h-1.296l-2.736-2.844V123h-1.044v-6h1.044v2.652l2.592-2.652h1.344l-2.868 2.904Zm-61.833 16.592V134h1.044v6h-1.044v-2.508h-3.108V140h-1.044v-6h1.044v2.496h3.108Zm7.601-1.464V134h1.044v6h-1.044v-1.032c-.512.792-1.268 1.188-2.268 1.188a2.863 2.863 0 0 1-2.148-.912c-.592-.616-.888-1.364-.888-2.244 0-.872.296-1.616.888-2.232.592-.616 1.308-.924 2.148-.924 1 0 1.756.396 2.268 1.188Zm-2.136 4.116c.608 0 1.116-.204 1.524-.612.408-.424.612-.936.612-1.536 0-.608-.204-1.116-.612-1.524-.408-.416-.916-.624-1.524-.624-.6 0-1.104.208-1.512.624-.408.408-.612.916-.612 1.524 0 .6.204 1.112.612 1.536.408.408.912.612 1.512.612Zm12.826.852h-5.424v-.912l2.964-3.024c.792-.792 1.188-1.472 1.188-2.04 0-.464-.144-.828-.432-1.092-.28-.272-.632-.408-1.056-.408-.792 0-1.368.376-1.728 1.128l-.936-.552c.256-.536.616-.944 1.08-1.224a2.92 2.92 0 0 1 1.572-.432 2.64 2.64 0 0 1 1.836.696c.52.472.78 1.096.78 1.872 0 .848-.5 1.772-1.5 2.772l-2.148 2.136h3.804V140Zm6.523-1.032c-.56.792-1.356 1.188-2.388 1.188-1.032 0-1.828-.396-2.388-1.188-.568-.8-.852-1.856-.852-3.168s.284-2.368.852-3.168c.56-.792 1.356-1.188 2.388-1.188 1.032 0 1.828.396 2.388 1.188.568.8.852 1.856.852 3.168s-.284 2.368-.852 3.168Zm-4.512-3.168c0 1.04.184 1.844.552 2.412.368.568.892.852 1.572.852s1.204-.284 1.572-.852c.376-.568.564-1.372.564-2.412 0-1.04-.188-1.844-.564-2.412-.368-.576-.892-.864-1.572-.864s-1.204.284-1.572.852c-.368.568-.552 1.376-.552 2.424Zm11.606 4.2h-5.424v-.912l2.964-3.024c.792-.792 1.188-1.472 1.188-2.04 0-.464-.144-.828-.432-1.092-.28-.272-.632-.408-1.056-.408-.792 0-1.368.376-1.728 1.128l-.936-.552c.256-.536.616-.944 1.08-1.224a2.92 2.92 0 0 1 1.572-.432 2.64 2.64 0 0 1 1.836.696c.52.472.78 1.096.78 1.872 0 .848-.5 1.772-1.5 2.772l-2.148 2.136h3.804V140Zm5.971-7.416-1.824 2.46c.656.12 1.184.4 1.584.84.4.44.6.984.6 1.632 0 .824-.28 1.468-.84 1.932-.568.472-1.248.708-2.04.708-.656 0-1.228-.148-1.716-.444a2.457 2.457 0 0 1-1.044-1.26l.936-.552c.248.776.856 1.164 1.824 1.164.528 0 .952-.136 1.272-.408.328-.28.492-.66.492-1.14 0-.48-.164-.86-.492-1.14-.32-.28-.744-.42-1.272-.42h-.288l-.444-.684 1.944-2.628h-3.732V131.6h5.04v.984Zm4.598 1.416h3.936v1.008h-2.892V140h-1.044v-6Zm9.681 5.244c-.608.608-1.356.912-2.244.912-.888 0-1.636-.304-2.244-.912-.608-.608-.912-1.356-.912-2.244 0-.888.304-1.636.912-2.244.608-.608 1.356-.912 2.244-.912.888 0 1.636.304 2.244.912.616.616.924 1.364.924 2.244 0 .88-.308 1.628-.924 2.244Zm-2.244-.108c.6 0 1.104-.204 1.512-.612.408-.408.612-.916.612-1.524s-.204-1.116-.612-1.524c-.408-.408-.912-.612-1.512-.612a2.04 2.04 0 0 0-1.5.612c-.408.408-.612.916-.612 1.524s.204 1.116.612 1.524a2.04 2.04 0 0 0 1.5.612ZM139.39 134v5.004h.827v2.604h-1.031V140h-4.5v1.608h-1.032v-2.604h.732c.384-.528.576-1.268.576-2.22V134h4.428Zm-3.816 5.004h2.784v-4.032h-2.364v1.812c0 .88-.14 1.62-.42 2.22Zm7.448-6.264 1.092-.06v.768l-1.092-.048.636.876-.684.408-.54-.984-.54.984-.672-.408.624-.876-1.08.048v-.768l1.08.06-.624-.888.672-.408.54.984.54-.984.684.408-.636.888Z"/></svg>